{"title":"Absolute Power 1997 DVD9rip English Klam","uid":5924200,"size":1892644986,"categoryP":"video","categoryS":"movies","magnet":"?xt=urn:btih:6f2cf060641a0f3f271e6f385b49d48f2062b508&amp;dn=Absolute+Power+1997+DVD9rip+English+Klam&amp;tr=udp%3A%2F%2Ftracker.openbittorrent.com%3A80&amp;tr=udp%3A%2F%2Fopen.demonii.com%3A1337&amp;tr=udp%3A%2F%2Ftracker.coppersurfer.tk%3A6969&amp;tr=udp%3A%2F%2Fexodus.desync.com%3A6969","seeders":2,"leechers":0,"uploader":"Klambake","files":-1,"time":1288542587,"description":"Withe: Clint Eastwood, Gene Hackman and Laura Linney\n\nBased on the novel by David Baldacci, Absolute Power is about the ruthlessness of people in power. The President believes that everything he does is beyond reproach, including an affair or two. That leads to murder and everyone around him is involved. There is only one witness, a thief named Luther Whitney. They are sure he'll talk, but when? The Secret Service is determined to keep him quiet, but catching a thief isn't always easy\n\nGeneral:\n\nComplete name                    : Klambake\\Absolute\\Power.avi\nFormat                           : AVI\nFormat/Info                      : Audio Video Interleave\nFile size                        : 1.76 GiB\nDuration                         : 1h 56mn\nOverall bit rate                 : 2 169 Kbps\n\nVideo:\n\nFormat                           : MPEG-4 Visual\nFormat profile                   : Simple@L3\nFormat settings, BVOP            : No\nFormat settings, QPel            : No\nFormat settings, GMC             : No warppoints\nFormat settings, Matrix          : Default (H.263)\nCodec ID                         : XVID\nCodec ID/Hint                    : XviD\nDuration                         : 1h 56mn\nBit rate                         : 1 775 Kbps\nWidth                            : 720 pixels\nHeight                           : 576 pixels\nDisplay aspect ratio             : 5:4\nFrame rate                       : 25.000 fps\nStandard                         : PAL\nColor space                      : YUV\nChroma subsampling               : 4:2:0\nBit depth                        : 8 bits\nScan type                        : Progressive\nBits/(Pixel*Frame)               : 0.171\nStream size                      : 1.44 GiB (82%)\nWriting library                  : XviD 1.1.2 (UTC 2006-11-01)\n\nAudio:\n\nFormat                           : AC-3\nFormat/Info                      : Audio Coding 3\nMode extension                   : CM (complete main)\nCodec ID                         : 2000\nDuration                         : 1h 56mn\nBit rate mode                    : Constant\nBit rate                         : 384 Kbps\nChannel(s)                       : 6 channels\nChannel positions                : Front: L C R, Side: L R, LFE\nSampling rate                    : 48.0 KHz\nBit depth                        : 16 bits\nStream size                      : 319 MiB (18%)\nAlignment                        : Aligned on interleaves\nInterleave, duration             : 32 ms (0.80 video frame)\nInterleave, preload duration     : 448 ms","torrent":{"xt":"urn:btih:6f2cf060641a0f3f271e6f385b49d48f2062b508","amp;dn":"Absolute+Power+1997+DVD9rip+English+Klam","amp;tr":["udp%3A%2F%2Ftracker.openbittorrent.com%3A80","udp%3A%2F%2Fopen.demonii.com%3A1337","udp%3A%2F%2Ftracker.coppersurfer.tk%3A6969","udp%3A%2F%2Fexodus.desync.com%3A6969"],"infoHash":"6f2cf060641a0f3f271e6f385b49d48f2062b508","infoHashBuffer":{"type":"Buffer","data":[111,44,240,96,100,26,15,63,39,30,111,56,91,73,212,143,32,98,181,8]},"announce":[],"urlList":[]}}